<?xml version="1.0" encoding="UTF-8"?>
<svg id="Layer_1" xmlns="http://www.w3.org/2000/svg" viewBox="0 0 842.24 232.76">
  <defs>
    <style>
      .cls-1 {
        fill: #fff;
      }

      .cls-2 {
        fill: #328c32;
      }
    </style>
  </defs>
  <path class="cls-1" d="M71.14,192.67v-123.8H22.32v-28.77h132.96v28.77h-48.82v123.8h-35.32Z"/>
  <path class="cls-1" d="M126.19,147.03c0-28.27,19.76-51.91,46.22-57.9V0H0v232.76h172.41v-27.83c-26.46-5.99-46.22-29.63-46.22-57.9Z"/>
  <g>
    <polygon class="cls-1" points="185.57 206.41 185.57 232.76 305.53 232.76 299.19 206.41 185.57 206.41"/>
    <polyline class="cls-1" points="842.24 232.76 842.24 206.41 397.92 206.41 406.51 232.76"/>
  </g>
  <g>
    <path class="cls-1" d="M183.95,194.02c-8.68,0-16.42-2.03-23.21-6.08-6.79-4.05-12.13-9.6-16.01-16.64-3.88-7.04-5.82-15.06-5.82-24.07s1.94-17.2,5.82-24.24,9.22-12.56,16.01-16.56,14.53-6,23.21-6,16.6,2,23.44,6,12.21,9.52,16.09,16.56c3.88,7.04,5.82,15.12,5.82,24.24s-1.94,17.18-5.82,24.16c-3.88,6.99-9.25,12.5-16.09,16.56-6.85,4.05-14.66,6.08-23.44,6.08h0ZM183.95,172.39c4.08,0,7.69-.98,10.8-2.96,3.11-1.97,5.62-4.87,7.51-8.7s2.83-8.33,2.83-13.52-.95-9.8-2.83-13.52c-1.89-3.72-4.39-6.56-7.51-8.53s-6.67-2.96-10.65-2.96-7.56.99-10.73,2.96-5.7,4.81-7.58,8.53c-1.89,3.72-2.83,8.22-2.83,13.52s.94,9.69,2.83,13.52,4.42,6.73,7.58,8.7c3.17,1.97,6.69,2.96,10.57,2.96h0Z"/>
    <path class="cls-1" d="M245.25,192.67v-90.89h22.83v25.85l-3.22-7.6c2.45-6.42,6.38-11.29,11.8-14.61,5.41-3.32,12-4.98,19.77-4.98v24.5c-.92-.22-1.81-.39-2.68-.51-.87-.11-1.71-.17-2.53-.17-6.74,0-12.1,2.09-16.09,6.25-3.98,4.17-5.98,10.59-5.98,19.26v42.91h-23.9,0Z"/>
    <path class="cls-1" d="M344.85,188.27c-7.46,0-14.3-1.83-20.53-5.49s-11.19-8.79-14.86-15.37c-3.68-6.59-5.52-14.28-5.52-23.06s1.84-16.64,5.52-23.23,8.63-11.68,14.86-15.29c6.23-3.6,13.08-5.41,20.53-5.41s13.36,1.55,18.62,4.65,9.37,7.91,12.33,14.45c2.96,6.53,4.44,14.81,4.44,24.84s-1.48,18.28-4.44,24.75c-2.96,6.48-7.08,11.29-12.33,14.45-5.26,3.15-11.47,4.73-18.62,4.73v-.02ZM348.68,226.79c-7.76,0-15.25-1.04-22.45-3.12-7.2-2.09-13.2-5.21-18-9.38l9.5-19.09c3.57,3.27,7.99,5.83,13.25,7.69s10.6,2.79,16.01,2.79c8.38,0,14.5-2.09,18.39-6.25,3.88-4.17,5.82-10.36,5.82-18.58v-13.52l1.53-22.98-.46-23.15v-19.43h22.68v75.69c0,16.78-3.98,29.2-11.95,37.25s-19.41,12.08-34.32,12.08ZM349.75,166.82c4.19,0,7.92-.96,11.19-2.87,3.27-1.91,5.82-4.56,7.66-7.94s2.76-7.26,2.76-11.66-.92-8.42-2.76-11.74-4.39-5.88-7.66-7.69c-3.27-1.8-7-2.7-11.19-2.7s-7.79.9-11.11,2.7c-3.32,1.8-5.93,4.37-7.81,7.69-1.89,3.32-2.83,7.24-2.83,11.74s.94,8.28,2.83,11.66c1.89,3.38,4.49,6.03,7.81,7.94,3.32,1.92,7.02,2.87,11.11,2.87Z"/>
    <path class="cls-1" d="M458.09,194.02c-9.4,0-17.62-2.03-24.67-6.08s-12.51-9.6-16.4-16.64c-3.88-7.04-5.82-15.06-5.82-24.07s1.86-17.06,5.59-24.16c3.73-7.1,8.94-12.64,15.63-16.64s14.22-6,22.6-6,15.35,1.92,21.84,5.74c6.49,3.83,11.62,9.24,15.4,16.22s5.67,15.37,5.67,25.17c0,1.01-.05,2.17-.15,3.46-.1,1.3-.21,2.51-.31,3.63h-66.96v-15.37h54.4l-9.35,4.56c.1-4.73-.72-8.84-2.45-12.33-1.74-3.49-4.14-6.22-7.2-8.19s-6.64-2.96-10.73-2.96-7.69.99-10.8,2.96c-3.12,1.97-5.54,4.73-7.28,8.28s-2.6,7.75-2.6,12.59v4.05c0,5.07,1.02,9.46,3.06,13.18,2.04,3.72,4.85,6.56,8.43,8.53,3.57,1.97,7.87,2.96,12.87,2.96,4.29,0,8.1-.73,11.42-2.2,3.32-1.46,6.36-3.66,9.12-6.59l12.72,15.21c-3.78,4.73-8.53,8.36-14.25,10.9-5.72,2.53-12.31,3.8-19.77,3.8h0Z"/>
    <path class="cls-1" d="M513.87,192.67v-90.89h22.83v25.85l-3.22-7.6c2.45-6.42,6.38-11.29,11.8-14.61,5.41-3.32,12-4.98,19.77-4.98v24.5c-.92-.22-1.82-.39-2.68-.51-.87-.11-1.71-.17-2.53-.17-6.74,0-12.11,2.09-16.09,6.25-3.98,4.17-5.98,10.59-5.98,19.26v42.91h-23.9Z"/>
    <path class="cls-1" d="M607.64,194.02c-7.05,0-13.79-.93-20.23-2.79s-11.6-4.19-15.48-7.01l7.82-18.75c3.88,2.48,8.4,4.54,13.56,6.17s10.24,2.45,15.25,2.45c5.52,0,9.42-.73,11.72-2.2,2.3-1.46,3.45-3.49,3.45-6.08,0-2.14-.9-3.74-2.68-4.81-1.79-1.07-4.14-1.88-7.05-2.45-2.91-.56-6.16-1.12-9.73-1.69-3.58-.56-7.12-1.35-10.65-2.37s-6.79-2.45-9.81-4.31c-3.01-1.86-5.42-4.42-7.2-7.69-1.79-3.27-2.68-7.49-2.68-12.67,0-5.74,1.53-10.84,4.6-15.29,3.06-4.45,7.41-7.91,13.02-10.39,5.62-2.48,12.41-3.72,20.38-3.72,5.72,0,11.47.71,17.24,2.11,5.77,1.41,10.65,3.35,14.63,5.83l-8.12,18.75c-3.88-2.48-7.84-4.22-11.88-5.24-4.04-1.01-7.89-1.52-11.57-1.52-5.52,0-9.5.79-11.95,2.37s-3.68,3.61-3.68,6.08c0,2.25.92,3.97,2.76,5.15s4.24,2.06,7.2,2.62,6.23,1.13,9.81,1.69,7.1,1.35,10.57,2.37c3.47,1.01,6.72,2.45,9.73,4.31s5.41,4.42,7.2,7.69c1.79,3.27,2.68,7.49,2.68,12.67,0,5.52-1.53,10.45-4.6,14.78-3.06,4.34-7.48,7.75-13.25,10.22-5.77,2.48-12.79,3.72-21.07,3.72h0Z"/>
    <path class="cls-1" d="M702.19,194.02c-9.4,0-17.62-2.03-24.67-6.08s-12.51-9.6-16.4-16.64c-3.88-7.04-5.82-15.06-5.82-24.07s1.86-17.06,5.59-24.16c3.73-7.1,8.94-12.64,15.63-16.64s14.22-6,22.6-6,15.35,1.92,21.84,5.74c6.49,3.83,11.62,9.24,15.4,16.22s5.67,15.37,5.67,25.17c0,1.01-.05,2.17-.15,3.46-.1,1.3-.21,2.51-.31,3.63h-66.96v-15.37h54.4l-9.35,4.56c.1-4.73-.72-8.84-2.45-12.33-1.74-3.49-4.14-6.22-7.2-8.19s-6.64-2.96-10.73-2.96-7.69.99-10.8,2.96c-3.12,1.97-5.54,4.73-7.28,8.28-1.74,3.55-2.61,7.75-2.61,12.59v4.05c0,5.07,1.02,9.46,3.07,13.18,2.04,3.72,4.85,6.56,8.43,8.53,3.57,1.97,7.87,2.96,12.87,2.96,4.29,0,8.09-.73,11.42-2.2,3.32-1.46,6.36-3.66,9.12-6.59l12.72,15.21c-3.78,4.73-8.53,8.36-14.25,10.9-5.72,2.53-12.31,3.8-19.77,3.8h0Z"/>
    <path class="cls-1" d="M757.96,192.67v-90.89h22.83v25.17l-4.29-7.6c2.96-6.08,7.2-10.75,12.72-14.02,5.52-3.27,11.8-4.9,18.85-4.9,6.54,0,12.39,1.44,17.55,4.31,5.16,2.87,9.22,7.27,12.18,13.18s4.44,13.49,4.44,22.72v52.04h-23.9v-47.98c0-7.32-1.46-12.73-4.37-16.22-2.91-3.49-7.02-5.24-12.33-5.24-3.78,0-7.18.9-10.19,2.7-3.01,1.8-5.36,4.45-7.05,7.94-1.69,3.49-2.53,8.11-2.53,13.85v44.94h-23.91Z"/>
  </g>
  <path class="cls-2" d="M66.12,194.93v-123.8H17.29v-28.77h132.96v28.77h-48.82v123.8s-35.31,0-35.31,0Z"/>
</svg>